<svg width="331" height="308" viewBox="0 0 331 308" fill="none" xmlns="http://www.w3.org/2000/svg">
<path d="M41.5712 122.337H82.7985C85.2492 122.337 87.5994 123.311 89.3321 125.044C91.0648 126.777 92.0383 129.128 92.0383 131.578V150.797C92.0383 153.247 91.0648 155.598 89.332 157.33C87.5992 159.063 85.249 160.037 82.7985 160.037H82.4918L85.8006 171.122C85.8307 171.227 85.827 171.339 85.7903 171.442C85.7535 171.545 85.6854 171.634 85.5955 171.697C85.5057 171.76 85.3985 171.792 85.289 171.791C85.1795 171.79 85.0732 171.754 84.9848 171.69L69.7033 160.037H41.5712C40.3576 160.037 39.156 159.798 38.0348 159.334C36.9136 158.87 35.8948 158.189 35.0366 157.331C34.1785 156.473 33.4977 155.454 33.0333 154.333C32.5688 153.212 32.3298 152.01 32.3298 150.797V131.578C32.3298 129.127 33.3034 126.777 35.0365 125.044C36.7696 123.31 39.1202 122.337 41.5712 122.337Z" fill="#F4F4F4"/>
<path d="M293.874 70.4595H248.914C246.241 70.4595 243.678 71.5211 241.788 73.4109C239.899 75.3007 238.837 77.8637 238.837 80.5362V101.499C238.837 104.172 239.899 106.735 241.788 108.624C243.678 110.514 246.241 111.576 248.914 111.576H249.248L245.639 123.666C245.604 123.782 245.607 123.906 245.648 124.02C245.688 124.134 245.763 124.233 245.863 124.302C245.962 124.37 246.081 124.406 246.202 124.403C246.323 124.399 246.44 124.358 246.536 124.284L263.195 111.576H293.869C295.193 111.576 296.504 111.316 297.727 110.81C298.95 110.304 300.062 109.562 300.998 108.626C301.934 107.69 302.677 106.579 303.183 105.356C303.69 104.134 303.951 102.823 303.951 101.499V80.5362C303.951 77.8637 302.889 75.3007 300.999 73.4109C299.11 71.5211 296.547 70.4595 293.874 70.4595Z" fill="#F4F4F4"/>
<path d="M82.7789 138.474H43.1897C41.9781 138.474 40.8161 137.993 39.9593 137.136C39.1026 136.279 38.6212 135.117 38.6212 133.906C38.6212 132.694 39.1026 131.532 39.9593 130.675C40.8161 129.819 41.9781 129.337 43.1897 129.337H82.7724C83.984 129.337 85.1461 129.819 86.0028 130.675C86.8596 131.532 87.3409 132.694 87.3409 133.906C87.3409 135.116 86.8605 136.277 86.0051 137.134C85.1498 137.99 83.9894 138.473 82.7789 138.474Z" fill="#C3E0F4"/>
<path d="M82.7789 152.443H43.1897C41.9781 152.443 40.8161 151.962 39.9593 151.105C39.1026 150.248 38.6212 149.086 38.6212 147.874C38.6212 146.663 39.1026 145.501 39.9593 144.644C40.8161 143.787 41.9781 143.306 43.1897 143.306H82.7724C83.984 143.306 85.1461 143.787 86.0028 144.644C86.8596 145.501 87.3409 146.663 87.3409 147.874C87.3409 149.085 86.8605 150.246 86.0051 151.103C85.1498 151.959 83.9894 152.441 82.7789 152.443Z" fill="#C3E0F4"/>
<path d="M293.496 79.0258H248.227C245.981 79.0258 244.161 80.8462 244.161 83.0918V84.1066C244.161 86.3522 245.981 88.1726 248.227 88.1726H293.496C295.741 88.1726 297.562 86.3522 297.562 84.1066V83.0918C297.562 80.8462 295.741 79.0258 293.496 79.0258Z" fill="#C3E0F4"/>
<path d="M271.399 92.8573H250.199C247.674 92.8573 245.626 94.9049 245.626 97.4307C245.626 99.9565 247.674 102.004 250.199 102.004H271.399C273.925 102.004 275.972 99.9565 275.972 97.4307C275.972 94.9049 273.925 92.8573 271.399 92.8573Z" fill="#C3E0F4"/>
<path d="M303.243 140.767C304.363 139.921 305.708 139.498 307.278 139.498C310.665 139.498 312.458 141.34 312.458 143.931C312.458 145.425 311.737 146.944 310.267 148.463C308.399 150.431 307.054 151.4 306.207 151.4C306.02 151.402 305.835 151.367 305.662 151.297C305.488 151.226 305.331 151.121 305.199 150.989C305.067 150.857 304.962 150.7 304.892 150.526C304.821 150.353 304.786 150.168 304.788 149.981C304.788 149.284 305.441 148.586 306.555 147.566C306.614 147.499 306.682 147.441 306.756 147.391C308.025 146.22 308.423 145.572 308.423 144.781C308.423 143.784 307.751 143.236 306.78 143.236C306.236 143.253 305.699 143.355 305.186 143.536C304.753 143.695 304.301 143.796 303.842 143.834C303.433 143.819 303.046 143.643 302.767 143.345C302.487 143.046 302.336 142.649 302.347 142.24C302.347 141.713 302.646 141.216 303.243 140.767ZM306.656 157.38C306.32 157.389 305.986 157.33 305.673 157.205C305.361 157.081 305.077 156.894 304.839 156.656C304.601 156.419 304.415 156.135 304.29 155.822C304.166 155.51 304.106 155.176 304.116 154.84C304.116 153.644 305.135 152.498 306.656 152.498C307.273 152.51 307.862 152.76 308.299 153.197C308.735 153.633 308.986 154.222 308.997 154.84C308.997 156.208 308.025 157.38 306.656 157.38Z" fill="white"/>
<path d="M60.0524 85.2051C58.2408 85.2051 56.4698 84.6679 54.9635 83.6614C53.4572 82.6549 52.2831 81.2243 51.5898 79.5506C50.8965 77.8769 50.7152 76.0351 51.0686 74.2583C51.422 72.4815 52.2944 70.8493 53.5754 69.5683C54.8565 68.2873 56.4886 67.4149 58.2654 67.0615C60.0422 66.708 61.884 66.8894 63.5577 67.5827C65.2315 68.276 66.662 69.45 67.6685 70.9564C68.675 72.4627 69.2122 74.2336 69.2122 76.0453C69.2092 78.4737 68.2432 80.8018 66.526 82.5189C64.8089 84.2361 62.4808 85.2021 60.0524 85.2051ZM60.0524 69.4079C58.7394 69.407 57.4557 69.7954 56.3635 70.5241C55.2714 71.2529 54.4199 72.2892 53.9168 73.5019C53.4137 74.7146 53.2815 76.0493 53.5371 77.3372C53.7926 78.625 54.4244 79.8081 55.3525 80.7369C56.2805 81.6656 57.4632 82.2983 58.7508 82.5548C60.0385 82.8113 61.3733 82.6801 62.5864 82.1779C63.7995 81.6756 64.8364 80.8249 65.5659 79.7333C66.2955 78.6417 66.6849 77.3582 66.6849 76.0453C66.6827 74.2865 65.9834 72.6002 64.7402 71.3561C63.497 70.1119 61.8112 69.4114 60.0524 69.4079Z" fill="white"/>
<path d="M310.189 59.0164C310.479 57.2295 309.266 55.5458 307.479 55.2557C305.692 54.9656 304.008 56.1791 303.718 57.966C303.428 59.753 304.642 61.4367 306.429 61.7268C308.216 62.0169 309.899 60.8034 310.189 59.0164Z" fill="white"/>
<path d="M317.715 70.822C317.715 71.8417 317.413 72.8386 316.846 73.6864C316.28 74.5343 315.474 75.1952 314.532 75.5854C313.59 75.9756 312.554 76.0777 311.553 75.8788C310.553 75.6799 309.635 75.1888 308.913 74.4677C308.192 73.7467 307.701 72.828 307.502 71.8279C307.304 70.8277 307.406 69.791 307.796 68.8489C308.186 67.9068 308.847 67.1016 309.695 66.5351C310.543 65.9685 311.539 65.6661 312.559 65.6661C313.236 65.6661 313.907 65.7995 314.532 66.0586C315.158 66.3177 315.726 66.6975 316.205 67.1763C316.684 67.655 317.064 68.2234 317.323 68.8489C317.582 69.4745 317.715 70.1449 317.715 70.822Z" fill="white"/>
<path d="M80.5878 61.4657C80.5897 62.5008 80.2846 63.5132 79.7109 64.3747C79.1372 65.2362 78.3208 65.9082 77.3651 66.3056C76.4093 66.703 75.3572 66.8079 74.3418 66.607C73.3264 66.4061 72.3934 65.9085 71.661 65.1772C70.9285 64.4459 70.4295 63.5137 70.227 62.4986C70.0246 61.4835 70.1278 60.4312 70.5237 59.4749C70.9196 58.5185 71.5903 57.7011 72.4509 57.1261C73.3116 56.551 74.3234 56.2443 75.3585 56.2446C76.744 56.2446 78.0729 56.7944 79.0533 57.7733C80.0337 58.7523 80.5856 60.0802 80.5878 61.4657Z" fill="white"/>
<path d="M328.541 308.006H18.2158C17.7295 308.006 17.2631 307.795 16.9192 307.42C16.5754 307.044 16.3822 306.535 16.3822 306.005C16.3822 305.742 16.4296 305.482 16.5218 305.239C16.6139 304.997 16.749 304.776 16.9193 304.591C17.0896 304.405 17.2917 304.258 17.5142 304.157C17.7367 304.057 17.975 304.005 18.2158 304.006H328.541C328.782 304.005 329.02 304.057 329.243 304.157C329.465 304.258 329.667 304.405 329.837 304.591C330.008 304.776 330.143 304.997 330.235 305.239C330.327 305.482 330.375 305.742 330.375 306.005C330.375 306.535 330.181 307.044 329.838 307.42C329.494 307.795 329.027 308.006 328.541 308.006Z" fill="#201D40"/>
<path d="M120.75 148.652H120.755L125.506 148.67L126.583 159.892L121.035 162.821L115.121 159.927L116.077 148.67L120.75 148.652Z" fill="#FFB07B"/>
<path d="M107.695 143.702C110.619 151.01 117.648 155.071 123.383 152.773C129.118 150.476 131.404 142.692 128.479 135.384C125.553 128.076 118.526 124.015 112.792 126.31C107.059 128.606 104.771 136.394 107.695 143.702Z" fill="#FFB07B"/>
<path d="M103.701 138.241C101.228 131.199 107.253 127.146 107.253 127.146C107.253 127.146 105.636 127.003 105.444 124.732C106.671 125.109 107.986 125.081 109.196 124.652C117.227 121.744 122.757 121.782 122.757 125.219C122.757 126.442 128.061 125.604 127.615 133.833C127.646 133.25 125.752 129.868 123.961 129.53C122.169 129.192 123.786 131.586 120.045 132.1C116.269 132.619 113.492 131.702 111.185 133.833C109.386 135.693 108.943 145.145 109.213 145.712C108.583 144.407 104.789 141.335 103.701 138.241Z" fill="#444444"/>
<path d="M129.586 139.498C129.586 139.498 129.927 143.785 129.309 145.11C128.656 143.391 127.284 145.213 125.987 145.384C122.851 145.8 117.194 144.755 116.633 149.463C112.802 150.677 109.213 142.475 109.213 142.475C108.992 151.638 115.698 156.833 125.348 155.316C131.704 154.306 132.295 145.453 129.586 139.498Z" fill="#444444"/>
<path d="M109.121 142.531C110.735 143.436 111.443 145.242 110.701 146.562C109.958 147.882 108.049 148.218 106.436 147.313C104.822 146.407 104.116 144.601 104.856 143.279C105.597 141.958 107.508 141.623 109.121 142.531Z" fill="#FFB07B"/>
<path d="M126.248 298.53C127.258 295.784 129.42 295.478 129.42 295.478C133.621 301.275 143.941 297.718 143.597 305.558C127.908 305.457 121.386 305.558 121.386 305.558C121.407 303.763 121.712 299.483 122.079 297.811L122.895 297.961L126.248 298.53Z" fill="black"/>
<path d="M102.773 298.682C103.784 295.936 105.946 295.63 105.946 295.63C110.148 301.427 120.467 297.87 120.123 305.71C104.434 305.61 97.9122 305.71 97.9122 305.71C97.9334 303.915 98.2385 299.635 98.6056 297.963L99.4214 298.113L102.773 298.682Z" fill="black"/>
<path d="M136.681 206.98C136.681 206.98 139.229 244.133 138.193 252.394C137.157 260.655 133.494 271.242 133.91 298.569C128.795 299.849 121.384 298.569 121.384 298.569C121.384 298.569 120.286 267.676 125.694 253.877C123.496 240.47 116.449 209.772 116.449 209.772L136.681 206.98Z" fill="#00B8A6"/>
<path d="M127.002 207.995C127.002 207.995 121.858 249.705 119.334 257.616C116.809 265.528 111.905 272.216 107.348 299.131C102.091 299.394 97.1959 299.131 97.1959 299.131C97.1959 299.131 97.9057 264.991 106.091 257.227C106.369 243.635 104.768 208.262 104.768 208.262L127.002 207.995Z" fill="#00B8A6"/>
<path d="M103.29 160.66C103.29 160.66 112.223 157.532 115.201 158.966C124.458 163.424 126.581 158.966 126.581 158.966C129.539 159.222 138.467 160.66 138.467 160.66C138.467 170.632 139.133 180.637 138.957 188.183C138.829 194.755 140.081 212.638 140.081 212.638C140.081 212.638 130.233 215.22 120.914 215.287C111.598 215.227 102.114 212.742 102.114 212.742C102.114 212.742 102.603 194.631 103.026 187.898C102.889 180.351 103.29 170.604 103.29 160.66Z" fill="#A7DDEF"/>
<path d="M154.349 175.48C150.662 166.682 139.72 161.086 138.469 160.66L135.932 171.954C139.133 173.852 142.167 176.017 145.003 178.426C144.351 181.57 144.465 184.656 142.644 188.632C142.644 188.632 144.225 186.451 146.176 187.741C148.072 188.998 151.561 186.436 151.561 186.436C151.561 186.436 157.167 182.2 154.349 175.48Z" fill="#00B8A6"/>
<path d="M152.295 197.716C152.357 197.735 152.421 197.748 152.486 197.755H152.696C152.891 197.735 153.074 197.658 153.225 197.534C153.376 197.41 153.487 197.245 153.545 197.059L163.375 165.365C163.395 165.302 163.408 165.239 163.414 165.174C163.417 165.132 163.417 165.09 163.414 165.048C163.414 165.024 163.414 164.998 163.414 164.973C163.414 164.949 163.405 164.929 163.401 164.908C163.372 164.725 163.293 164.555 163.172 164.415C163.052 164.275 162.894 164.172 162.718 164.116C162.657 164.097 162.594 164.083 162.53 164.076C162.46 164.068 162.389 164.068 162.318 164.076H137.571L127.656 197.755H152.311L152.295 197.716Z" fill="#C3E0F4"/>
<path d="M137.797 164.115C137.544 164.037 137.272 164.062 137.037 164.184C136.803 164.306 136.627 164.516 136.547 164.767L126.778 196.383L126.757 196.456C126.679 196.708 126.704 196.981 126.827 197.214C126.949 197.448 127.159 197.623 127.41 197.703C127.662 197.782 127.935 197.757 128.17 197.635C128.404 197.513 128.58 197.302 128.66 197.05L138.449 165.363C138.528 165.111 138.503 164.838 138.381 164.604C138.258 164.37 138.048 164.194 137.797 164.115Z" fill="#768FDB"/>
<path d="M156.493 184.22C156.585 184.163 156.685 184.119 156.79 184.091C156.778 184.077 156.767 184.062 156.757 184.046C156.141 183.117 156.183 182.006 156.849 181.566C156.957 181.494 157.078 181.444 157.204 181.417C157.032 180.729 157.187 180.073 157.661 179.758C157.852 179.635 158.074 179.572 158.301 179.578C158.084 178.903 158.255 178.193 158.79 177.841C159.456 177.4 160.422 177.678 160.949 178.477C161.476 179.276 161.36 180.272 160.693 180.712C160.527 180.821 160.338 180.889 160.141 180.911C160.585 181.774 160.495 182.721 159.893 183.121C159.784 183.191 159.664 183.241 159.538 183.269C159.711 183.958 159.556 184.613 159.079 184.928C158.904 185.042 158.699 185.104 158.49 185.106C158.71 185.698 158.57 186.335 158.102 186.645C157.539 187.017 156.723 186.777 156.279 186.108C155.836 185.439 155.933 184.592 156.493 184.22Z" fill="#FFB07B"/>
<path d="M126.075 182.218L128.33 180.913C128.33 180.913 128.955 177.713 132.572 177.636L131.561 180.913C131.561 180.913 133.344 182.298 137.571 179.934C141.706 179.004 139.941 182.019 141.311 182.234C143.333 182.561 139.843 186.527 135.71 187.129C130.368 187.917 129.735 186.824 129.735 186.824L126.712 187.88L126.075 182.218Z" fill="#FFB07B"/>
<path d="M105.191 185.636C112.73 185.109 125.586 181.384 125.586 181.384C127.645 184.542 127.075 188.735 127.075 188.735C115.365 199.001 97.7424 202.32 92.3353 199.849C87.3997 197.593 90.8848 167.544 103.278 160.66C107.539 167.849 105.191 185.636 105.191 185.636Z" fill="#00B8A6"/>
<path d="M226.716 295.739C222.514 301.343 212.194 297.904 212.539 305.484C228.228 305.386 234.748 305.484 234.748 305.484C234.727 303.743 234.422 299.61 234.056 297.993L226.716 295.739Z" fill="black"/>
<path d="M250.19 295.888C245.988 301.492 235.668 298.053 236.013 305.633C251.702 305.535 258.224 305.633 258.224 305.633C258.202 303.892 257.897 299.759 257.53 298.142L250.19 295.888Z" fill="black"/>
<path d="M219.452 210.187C219.452 210.187 216.905 246.103 217.939 254.089C218.974 262.074 222.638 272.312 222.224 298.724C227.339 299.961 234.748 298.724 234.748 298.724C234.748 298.724 235.848 268.866 230.441 255.519C232.638 242.561 239.693 212.884 239.693 212.884L219.452 210.187Z" fill="#42C7F4"/>
<path d="M229.134 211.168C229.134 211.168 234.276 251.489 236.794 259.137C239.312 266.784 244.223 273.252 248.781 299.274C254.037 299.529 260.301 298.235 260.301 298.235C260.301 298.235 258.223 266.27 250.036 258.765C249.76 245.624 251.361 211.427 251.361 211.427L229.134 211.168Z" fill="#42C7F4"/>
<path d="M250.077 145.198C247.289 152.165 240.593 156.038 235.122 153.845C229.651 151.652 227.474 144.232 230.263 137.265C233.051 130.298 239.746 126.426 245.218 128.617C250.69 130.808 252.87 138.231 250.077 145.198Z" fill="#FFB07B"/>
<path d="M248.137 145.928C246.12 139.445 248.671 136.001 248.671 136.001C246.939 135.653 246.267 136.252 246.267 136.252C245.323 134.314 246.054 132.925 246.054 132.925C242.475 131.53 240.694 133.847 237.466 134.627C233.046 135.697 227.585 133.934 227.075 128.536C227.057 128.362 227.09 128.186 227.169 128.03C227.249 127.873 227.371 127.743 227.522 127.654C227.672 127.564 227.846 127.52 228.021 127.526C228.196 127.531 228.366 127.587 228.511 127.686C229.219 128.168 230.062 128.415 230.919 128.391C230.339 127.685 229.996 126.813 229.94 125.901C229.936 125.723 229.983 125.548 230.077 125.397C230.171 125.245 230.306 125.124 230.467 125.048C230.628 124.972 230.807 124.945 230.984 124.969C231.16 124.993 231.326 125.067 231.46 125.183C232.379 125.949 234.084 126.671 237.124 126.102C239.147 125.722 243.779 122.481 246.664 123.114C249.023 123.632 250.894 125.64 251.7 128.512C251.7 128.512 257.498 129.114 258.078 135.493C258.649 141.762 251.389 146.572 251.389 146.572L248.137 145.928Z" fill="#444444"/>
<path d="M247.347 144.845C245.812 145.715 245.145 147.439 245.856 148.696C246.567 149.952 248.39 150.265 249.925 149.396C251.461 148.526 252.128 146.801 251.415 145.545C250.702 144.289 248.883 143.975 247.347 144.845Z" fill="#FFB07B"/>
<path d="M248.471 148.467C248.427 148.446 248.389 148.414 248.36 148.374C247.923 147.795 247.882 147.142 248.249 146.632C248.432 146.376 248.691 146.184 248.988 146.082C249.286 145.98 249.608 145.973 249.91 146.062C249.951 146.073 249.989 146.093 250.023 146.12C250.056 146.146 250.084 146.179 250.104 146.217C250.124 146.255 250.137 146.296 250.14 146.339C250.144 146.381 250.139 146.424 250.126 146.465C250.112 146.505 250.091 146.543 250.062 146.575C250.034 146.607 249.999 146.633 249.961 146.651C249.922 146.669 249.88 146.679 249.837 146.681C249.795 146.682 249.752 146.675 249.712 146.659C249.538 146.613 249.354 146.621 249.184 146.682C249.015 146.742 248.867 146.853 248.761 146.999C248.556 147.283 248.598 147.638 248.862 147.997C248.912 148.064 248.934 148.148 248.922 148.23C248.911 148.313 248.867 148.388 248.8 148.438C248.753 148.472 248.697 148.492 248.64 148.497C248.582 148.503 248.523 148.492 248.471 148.467Z" fill="#F37423"/>
<path d="M224.038 157.351C224.038 157.351 224.299 156.641 201.721 156.824L195.668 163.979C201.933 169.001 222.916 169.895 222.916 169.895L224.038 157.351Z" fill="#42C7F4"/>
<path d="M232.242 156.769L239.364 156.105L246.254 158.026L238.491 166.014L232.242 156.769Z" fill="white"/>
<path d="M234.711 160.437C237.613 162.819 238.207 164.467 244.371 161.282L245.296 151.803L235.26 151.011L234.711 160.437Z" fill="#FFB07B"/>
<path d="M248.082 161.842L245.972 161.006L246.254 158.025L240.4 162.728L238.747 162.99L237.166 162.437L232.242 156.769L231.991 159.745L230.127 160.119L223.412 161.213L222.614 198.486L219.964 211.168C228.874 214.131 238.84 214.87 248.636 213.521L248.31 200.794L255.269 164.367L248.082 161.842Z" fill="#C3E0F4"/>
<path d="M237.46 166.758L233.252 195.216L235.582 198.452L238.618 196.119L239.653 166.993L237.46 166.758Z" fill="#00B8A6"/>
<path d="M237.209 163.397L238.747 162.992L240.314 163.676L239.651 167.05L237.445 166.851L237.209 163.397Z" fill="#F37423"/>
<path d="M232.144 157.008L231.09 191.386L226.54 213.522C226.54 213.522 219.344 212.796 214.923 208.589L220.589 191.924L222.526 157.099L232.144 157.008Z" fill="#00B8A6"/>
<path d="M232.144 157.008L231.095 190.924L225.857 164.932L232.144 157.008Z" fill="#42C7F4"/>
<path d="M246.793 159.206L237.448 214.938C237.448 214.938 249.849 216.461 254.946 213.108L252.18 194.786L255.561 163.683L246.793 159.206Z" fill="#00B8A6"/>
<path d="M246.793 159.206L241.332 191.871L251.11 167.225L246.793 159.206Z" fill="#42C7F4"/>
<path d="M185.046 126.434C185.536 128.174 185.699 130.048 187.898 130.987C187.898 130.987 187.572 136.756 187.815 141.491C187.815 141.491 193.152 135.472 193.152 135.467C192.845 133.558 192.599 129.951 192.893 127.903C192.969 127.371 193.074 126.841 193.157 126.307C193.385 125.013 193.767 123.697 192.977 122.129C189.933 116.092 190.958 114.108 190.53 113.808C189.848 113.507 188.246 114.721 189.151 117.686C190.028 120.556 189.804 121.964 189.804 121.964C189.804 121.964 187.502 121.528 186.684 122.334C186.33 122.711 184.465 124.402 185.046 126.434Z" fill="#FFB07B"/>
<path d="M186.281 134.566C189.391 133.53 191.029 133.063 193.447 133.063C199.158 150.105 203.237 156.526 201.543 161.419C200.126 165.498 195.64 165.172 193.447 162.116C190.56 158.084 188 142.765 186.281 134.566Z" fill="#42C7F4"/>
<path d="M255.561 163.684L273.579 191.871L294.977 203.955L288.382 210.521L266.914 201.111L252.179 180.323L255.561 163.684Z" fill="#42C7F4"/>
<path d="M238.747 162.991C238.747 162.991 236.096 165.667 233.66 166.352L230.777 158.731L232.245 156.773L238.747 162.991Z" fill="white"/>
<path d="M238.747 162.993C239.854 164.732 241.366 166.178 243.153 167.206L247.346 160.242L246.253 158.028L238.747 162.993Z" fill="white"/>
<path d="M258.357 243.236H101.042C97.3443 243.236 94.352 241.218 94.352 238.729C94.352 236.243 97.3492 234.224 101.042 234.224H258.357C262.055 234.224 265.047 236.243 265.047 238.729C265.052 241.218 262.055 243.236 258.357 243.236Z" fill="#C3E0F4"/>
<path d="M160.003 306.713C159.62 306.714 159.244 306.611 158.915 306.416C158.586 306.22 158.316 305.939 158.134 305.603C157.952 305.266 157.864 304.887 157.88 304.504C157.896 304.122 158.015 303.751 158.224 303.431L199.762 239.779L203.317 242.099L161.78 305.751C161.587 306.046 161.323 306.289 161.013 306.457C160.703 306.625 160.356 306.713 160.003 306.713Z" fill="#C3E0F4"/>
<path d="M199.396 306.713C199.779 306.714 200.155 306.611 200.484 306.416C200.813 306.22 201.083 305.939 201.265 305.603C201.447 305.266 201.535 304.887 201.519 304.504C201.503 304.122 201.384 303.751 201.175 303.431L159.637 239.779L156.082 242.099L197.619 305.751C197.812 306.046 198.076 306.289 198.386 306.457C198.696 306.625 199.043 306.713 199.396 306.713Z" fill="#C3E0F4"/>
<path d="M264.619 305.706C264.08 305.706 263.563 305.492 263.182 305.11C262.801 304.729 262.586 304.212 262.586 303.673V267.642H266.652V303.673C266.652 304.212 266.438 304.729 266.057 305.11C265.676 305.492 265.159 305.706 264.619 305.706Z" fill="#768FDB"/>
<path d="M278.889 305.706C278.622 305.706 278.358 305.654 278.111 305.551C277.864 305.449 277.64 305.3 277.451 305.111C277.262 304.922 277.112 304.698 277.01 304.451C276.907 304.204 276.855 303.94 276.855 303.673V267.642H280.922V303.673C280.922 304.212 280.708 304.729 280.327 305.11C279.946 305.492 279.429 305.706 278.889 305.706Z" fill="#768FDB"/>
<path d="M297.612 305.706C297.073 305.706 296.556 305.492 296.175 305.11C295.793 304.729 295.579 304.212 295.579 303.673V267.642H299.647V303.673C299.647 303.94 299.594 304.204 299.492 304.451C299.39 304.698 299.24 304.922 299.051 305.111C298.862 305.3 298.638 305.449 298.391 305.551C298.144 305.654 297.879 305.706 297.612 305.706Z" fill="#768FDB"/>
<path d="M311.882 305.706C311.343 305.706 310.826 305.492 310.445 305.11C310.063 304.729 309.849 304.212 309.849 303.673V267.642H313.915V303.673C313.915 304.212 313.701 304.729 313.32 305.11C312.938 305.492 312.421 305.706 311.882 305.706Z" fill="#768FDB"/>
<path d="M289.382 214.171V257.046C289.382 257.28 289.289 257.505 289.123 257.671C288.957 257.837 288.732 257.93 288.498 257.93H261.914C261.277 257.93 260.645 258.055 260.056 258.299C259.467 258.543 258.931 258.901 258.48 259.352C258.029 259.803 257.672 260.338 257.428 260.927C257.184 261.517 257.058 262.148 257.059 262.786C257.058 263.424 257.184 264.055 257.428 264.644C257.672 265.233 258.029 265.769 258.48 266.22C258.931 266.671 259.467 267.028 260.056 267.272C260.645 267.516 261.277 267.642 261.914 267.642H294.238C294.876 267.642 295.507 267.516 296.097 267.272C296.686 267.028 297.221 266.671 297.672 266.22C298.124 265.769 298.481 265.234 298.725 264.644C298.97 264.055 299.095 263.424 299.095 262.786V214.164C299.095 212.876 298.583 211.64 297.673 210.729C296.762 209.819 295.526 209.307 294.238 209.307C293.6 209.307 292.968 209.433 292.378 209.677C291.788 209.922 291.253 210.28 290.802 210.732C290.351 211.184 289.993 211.72 289.75 212.31C289.506 212.9 289.381 213.532 289.382 214.171Z" fill="#95A6DB"/>
<path d="M315.256 209.316H294.238V258.719H315.256V209.316Z" fill="#95A6DB"/>
<path d="M310.401 214.171V257.046C310.401 257.28 310.307 257.505 310.142 257.671C309.976 257.837 309.751 257.93 309.516 257.93H282.933C282.295 257.93 281.663 258.055 281.074 258.299C280.485 258.543 279.95 258.901 279.499 259.352C279.048 259.803 278.69 260.338 278.446 260.927C278.202 261.517 278.077 262.148 278.077 262.786C278.077 263.424 278.202 264.055 278.446 264.644C278.69 265.233 279.048 265.769 279.499 266.22C279.95 266.671 280.485 267.028 281.074 267.272C281.663 267.516 282.295 267.642 282.933 267.642H315.256C315.894 267.642 316.526 267.516 317.115 267.272C317.704 267.028 318.24 266.671 318.691 266.22C319.142 265.769 319.5 265.234 319.744 264.644C319.988 264.055 320.114 263.424 320.114 262.786V214.164C320.114 212.876 319.602 211.64 318.691 210.729C317.78 209.819 316.544 209.307 315.256 209.307C314.618 209.307 313.986 209.433 313.396 209.677C312.807 209.922 312.271 210.28 311.82 210.732C311.369 211.184 311.011 211.72 310.768 212.31C310.524 212.9 310.4 213.532 310.401 214.171Z" fill="#768FDB"/>
<path d="M92.7905 305.706C93.3297 305.706 93.8468 305.492 94.228 305.11C94.6093 304.729 94.8235 304.212 94.8235 303.673V267.642H90.7543V303.673C90.7543 303.94 90.807 304.205 90.9093 304.452C91.0117 304.698 91.1617 304.923 91.3509 305.111C91.54 305.3 91.7645 305.45 92.0115 305.552C92.2586 305.654 92.5233 305.706 92.7905 305.706Z" fill="#768FDB"/>
<path d="M78.5189 305.706C78.7861 305.706 79.0506 305.654 79.2974 305.551C79.5443 305.449 79.7686 305.3 79.9575 305.111C80.1465 304.922 80.2964 304.698 80.3986 304.451C80.5009 304.204 80.5535 303.94 80.5535 303.673V267.642H76.486V303.673C76.486 304.212 76.7001 304.729 77.0814 305.11C77.4627 305.492 77.9798 305.706 78.5189 305.706Z" fill="#768FDB"/>
<path d="M59.7946 305.706C60.0617 305.706 60.3263 305.654 60.5731 305.551C60.82 305.449 61.0443 305.3 61.2332 305.111C61.4222 304.922 61.5721 304.698 61.6743 304.451C61.7766 304.204 61.8292 303.94 61.8292 303.673V267.642H57.7617V303.673C57.7617 304.212 57.9758 304.729 58.3571 305.11C58.7384 305.492 59.2555 305.706 59.7946 305.706Z" fill="#768FDB"/>
<path d="M45.5263 305.706C46.0655 305.706 46.5826 305.492 46.9638 305.11C47.3451 304.729 47.5593 304.212 47.5593 303.673V267.642H43.4933V303.673C43.4933 304.212 43.7075 304.729 44.0888 305.11C44.47 305.492 44.9871 305.706 45.5263 305.706Z" fill="#768FDB"/>
<path d="M68.0261 214.171V257.046C68.0261 257.28 68.119 257.505 68.2845 257.671C68.45 257.836 68.6745 257.93 68.9088 257.93H95.4941C96.7819 257.93 98.017 258.442 98.9276 259.352C99.8382 260.263 100.35 261.498 100.35 262.786C100.35 264.074 99.8382 265.309 98.9276 266.219C98.017 267.13 96.7819 267.642 95.4941 267.642H63.1705C62.5327 267.642 61.9011 267.516 61.3118 267.272C60.7225 267.028 60.187 266.671 59.7359 266.22C59.2849 265.769 58.9271 265.234 58.6829 264.644C58.4388 264.055 58.3132 263.424 58.3132 262.786V214.164C58.3132 212.876 58.8249 211.64 59.7358 210.729C60.6468 209.819 61.8822 209.307 63.1705 209.307C63.8087 209.307 64.4407 209.433 65.0303 209.678C65.6198 209.922 66.1554 210.281 66.6063 210.732C67.0573 211.184 67.4148 211.72 67.6584 212.31C67.902 212.9 68.027 213.532 68.0261 214.171Z" fill="#95A6DB"/>
<path d="M42.1505 258.72H63.1688L63.1688 209.317H42.1505L42.1505 258.72Z" fill="#95A6DB"/>
<path d="M47.0078 214.171V257.046C47.0078 257.28 47.101 257.505 47.2668 257.671C47.4327 257.837 47.6576 257.93 47.8922 257.93H74.4758C75.1136 257.93 75.7451 258.055 76.3343 258.299C76.9235 258.543 77.4589 258.901 77.9098 259.352C78.3607 259.803 78.7184 260.338 78.9623 260.927C79.2063 261.517 79.3317 262.148 79.3315 262.786C79.3317 263.424 79.2063 264.055 78.9623 264.644C78.7184 265.233 78.3607 265.769 77.9098 266.22C77.4589 266.671 76.9235 267.028 76.3343 267.272C75.7451 267.516 75.1136 267.642 74.4758 267.642H42.1522C41.5144 267.642 40.8828 267.516 40.2935 267.272C39.7042 267.028 39.1687 266.671 38.7177 266.22C38.2666 265.769 37.9088 265.234 37.6647 264.644C37.4205 264.055 37.2949 263.424 37.2949 262.786V214.164C37.2949 212.876 37.8066 211.64 38.7176 210.729C39.6285 209.819 40.8639 209.307 42.1522 209.307C42.7905 209.307 43.4226 209.433 44.0122 209.677C44.6019 209.922 45.1375 210.28 45.5885 210.732C46.0395 211.184 46.397 211.72 46.6405 212.31C46.8841 212.9 47.0089 213.532 47.0078 214.171Z" fill="#768FDB"/>
<path d="M278.565 197.787C274.08 196.168 267.152 192.631 271.755 186.166C276.357 179.702 276.241 182.523 274.585 174.67C272.929 166.817 278.511 160.638 283.835 162.205C289.159 163.771 290.515 168.078 297.039 166.985C303.564 165.892 308.988 171.997 306.532 177.289C304.077 182.58 303.027 185.12 305.323 188.057C307.619 190.994 317.968 194.142 313.652 201.159C309.337 208.177 307.358 207.746 308.857 211.344C310.357 214.941 306.899 219.037 300.9 218.477C294.9 217.917 289.479 215.649 287.269 208.952C285.06 202.254 278.565 197.787 278.565 197.787Z" fill="#444444"/>
<path d="M262.696 299.789L259.152 300.848L256.483 298.12C256.612 297.93 256.483 296.101 256.076 294.155L262.696 293.055C262.967 295.073 262.696 297.751 262.696 299.789Z" fill="#FFBF95"/>
<path d="M259.178 300.21C258.336 297.998 256.535 297.751 256.535 297.751C253.033 302.422 244.435 299.556 244.719 305.873C257.795 305.792 263.229 305.873 263.229 305.873C263.211 304.423 262.954 300.979 262.652 299.631L261.971 299.752L259.178 300.21Z" fill="#B460A3"/>
<path d="M239.124 300.447L235.435 300.7L233.314 298.438C233.477 298.275 233.882 295.484 233.908 293.493L240.128 293.77C239.925 296.014 239.59 298.243 239.124 300.447Z" fill="#FFBF95"/>
<path d="M235.835 300.21C234.993 297.998 233.192 297.751 233.192 297.751C229.69 302.422 221.092 299.556 221.376 305.873C234.451 305.792 239.886 305.873 239.886 305.873C239.868 304.423 239.61 300.979 239.309 299.631L238.626 299.752L235.835 300.21Z" fill="#B460A3"/>
<path d="M276.444 238.739C266.37 240.095 237.99 250.612 236.409 252.514C233.146 256.445 234.864 277.829 233.309 295.475L241.559 295.964C245.509 281.593 245.194 275.391 246.98 258.909C246.98 258.909 279.404 261.338 291.118 253.43C303.2 245.275 284.59 236.807 276.444 238.739Z" fill="#B460A3"/>
<path d="M263.316 217.792C265.696 218.198 266.613 220.107 267.188 223.625C258.118 228.969 244.642 229.349 244.642 229.349L240.348 227.228C240.348 227.228 251.152 223.333 263.316 217.792Z" fill="#FFB482"/>
<path d="M288.116 207.736C284.147 213.504 268.942 225.907 266.416 226.299L263.366 217.764C263.366 217.764 278.214 201.696 280.916 198.855C285.592 193.928 294.62 198.331 288.116 207.736Z" fill="#FFB482"/>
<path d="M271.394 206.81C274.577 203.384 278.723 195.64 284.12 196.19C289.518 196.74 289.904 202.465 288.278 205.547C286.651 208.63 281.038 216.226 281.038 216.226L271.394 206.81Z" fill="#D971C4"/>
<path d="M272.371 221.323C274.655 222.111 275.961 229.318 275.321 229.865C265.518 233.748 245.123 229.548 245.123 229.548L244.04 225.854C244.04 225.854 259.483 224.91 272.371 221.323Z" fill="#FFBF95"/>
<path d="M304.625 244.795C302.383 233.23 301.417 229.131 300.485 223.688C298.185 210.237 304.949 200.782 293.35 194.336L284.895 195.7C278.059 202.892 273.851 209.42 273.49 213.929C273.001 219.746 278.765 222.903 278.765 222.903L276.444 238.74C276.444 238.74 275.897 240.033 285.431 241.84C294.964 243.646 304.625 244.795 304.625 244.795Z" fill="#B460A3"/>
<path d="M297.674 209.377C293.706 215.212 276.744 230.04 274.195 230.171L272.371 221.322C272.371 221.322 287.78 203.267 290.482 200.394C295.15 195.408 304.173 199.864 297.674 209.377Z" fill="#FFBF95"/>
<path d="M281.459 209.42C284.421 205.109 290.397 197.158 295.791 197.71C301.185 198.261 301.575 203.983 299.949 207.067C298.322 210.151 292.708 217.744 292.708 217.744L281.459 209.42Z" fill="#D971C4"/>
<path d="M244.04 225.855C240.922 225.09 234.141 222.811 231.411 229.952C232.097 231.258 234.606 228.027 235.685 227.727C237.396 227.252 238.865 228.151 240.16 229.389C242.018 231.165 245.123 229.553 245.123 229.553L244.04 225.855Z" fill="#FFBF95"/>
<path d="M241.614 234.145H212.322V230.213H245.546C245.546 231.255 245.132 232.256 244.394 232.993C243.657 233.73 242.657 234.145 241.614 234.145Z" fill="#B460A3"/>
<path d="M197.259 209.44L212.322 234.146L215.804 232.315L198.91 204.124C198.452 204.365 198.047 204.693 197.716 205.09C197.385 205.488 197.136 205.946 196.983 206.44C196.829 206.934 196.775 207.453 196.822 207.967C196.87 208.482 197.018 208.983 197.259 209.44Z" fill="#B460A3"/>
<path d="M297.219 183.315C295.794 189.264 290.856 193.18 286.181 192.06C281.507 190.941 278.876 185.208 280.307 179.264C281.738 173.32 286.671 169.399 291.347 170.518C296.023 171.638 298.643 177.365 297.219 183.315Z" fill="#FFBF95"/>
<path d="M294.956 186.449L287.193 191.262C287.193 191.262 286.503 194.689 286.16 195.808C285.45 198.105 288.168 199.109 290.467 197.678C292.766 196.247 293.35 194.334 293.35 194.334L294.956 186.449Z" fill="#FFBF95"/>
<path d="M279.772 176.994C281.978 177.185 286.759 176.801 288.503 174.734C289.745 178.932 295.029 182.926 299.397 184.799C299.573 180.494 299.541 172.572 291.822 169.28C285.75 166.695 279.772 176.994 279.772 176.994Z" fill="#444444"/>
<path d="M294.971 183.355C293.828 184.238 293.502 185.708 294.225 186.637C294.948 187.565 296.454 187.604 297.589 186.72C298.725 185.836 299.058 184.367 298.337 183.439C297.615 182.51 296.106 182.473 294.971 183.355Z" fill="#FFBF95"/>
<path d="M295.618 186.37C295.574 186.348 295.536 186.316 295.507 186.277C295.07 185.698 295.029 185.045 295.396 184.534C295.58 184.279 295.838 184.087 296.136 183.985C296.434 183.882 296.756 183.876 297.057 183.965C297.098 183.976 297.137 183.996 297.17 184.022C297.204 184.049 297.231 184.082 297.252 184.12C297.272 184.157 297.284 184.199 297.288 184.241C297.291 184.284 297.286 184.327 297.273 184.367C297.26 184.408 297.238 184.445 297.21 184.477C297.181 184.509 297.147 184.535 297.108 184.553C297.07 184.572 297.028 184.582 296.985 184.583C296.942 184.585 296.9 184.577 296.86 184.562C296.686 184.516 296.501 184.524 296.332 184.584C296.162 184.645 296.014 184.755 295.909 184.901C295.703 185.185 295.745 185.541 296.01 185.9C296.06 185.967 296.082 186.05 296.07 186.133C296.058 186.216 296.014 186.29 295.948 186.34C295.9 186.374 295.845 186.395 295.787 186.4C295.729 186.405 295.671 186.395 295.618 186.37Z" fill="#DE623C"/>
<path d="M287.715 240.578C277.641 241.934 249.22 251.146 247.638 253.048C244.375 256.979 251.645 273.809 253.972 295.47H263.694C263.593 280.032 264.827 265.83 260.075 260.797C260.075 260.797 287.323 258.979 300.9 258.979C307.821 258.984 311.654 235.59 287.715 240.578Z" fill="#B460A3"/>
<path d="M89.1536 223.941C87.23 225.222 87.7619 232.197 88.4879 232.551C98.4913 233.774 115.387 225.486 115.387 225.486L116.049 221.779C116.049 221.779 101.937 224.143 89.1536 223.941Z" fill="#FFBF95"/>
<path d="M67.1744 211.844C70.7493 217.555 86.4029 232.35 88.8323 232.566L90.8996 224.192C90.8996 224.192 76.8498 206.38 74.3747 203.536C70.0999 198.596 61.3186 202.52 67.1744 211.844Z" fill="#FFBF95"/>
<path d="M75.7289 181.283C76.1581 175.429 74.4661 170.255 69.7964 167.622C65.0648 164.953 59.1372 167.57 59.1372 167.57C59.1372 167.57 54.12 165.785 49.5727 170.794C45.0254 175.803 48.4649 180.211 46.6048 183.865C45.5035 186.028 39.9022 186.475 41.3494 193.52C41.7655 195.552 44.2096 196.921 46.2802 197.056C49.917 197.294 53.3042 195.889 54.7792 197.294C59.6381 201.928 70.405 200.252 71.911 196.013C72.3793 194.708 82.0628 197.244 81.0969 188.293C80.6074 183.763 75.3439 186.522 75.7289 181.283Z" fill="#444444"/>
<path d="M66.8529 200.217L59.1632 198.797L56.2801 202.635L62.4084 215.198L71.4214 207.547L66.8529 200.217Z" fill="#FFBF95"/>
<path d="M76.8204 230.51C76.6899 228.12 80.5519 218.303 78.5189 213.361C77.0374 209.386 74.5639 202.714 71.534 201.6C70.1112 201.075 68.6428 200.709 66.848 200.21C66.848 200.21 67.8531 205.219 65.7598 205.387C61.7281 205.713 59.1583 198.79 59.1583 198.79C56.9866 198.583 47.0176 201.859 47.0208 202.677C47.0453 209.089 52.255 218.443 53.9584 225.376C54.6273 232.863 52.0168 241.822 52.0005 242.671C52.0005 242.671 68.0375 247.179 77.5432 241.945C77.7537 241.227 77.0015 233.811 76.8204 230.51Z" fill="#B460A3"/>
<path d="M54.4233 234.985C54.4233 234.985 50.8827 243.918 50.018 249.541C49.1532 255.163 54.0268 258.771 54.0268 258.771H94.5477C94.5477 258.771 98.8861 251.735 97.6363 246.878C96.3865 242.021 93.5132 241.247 93.5132 241.247L54.4233 234.985Z" fill="#B460A3"/>
<path d="M95.091 241C89.9172 240.27 74.9032 246.102 68.4959 258.771H86.4125L95.091 241Z" fill="#FFBF95"/>
<path d="M89.418 245.663C90.1138 244.874 90.7206 244.011 91.2275 243.089C92.7367 240.427 96.3768 239.979 98.431 242.243C105.899 250.476 121.818 269.246 125.367 271.581C126.371 272.234 132.22 275.611 137.784 274.944C137.784 274.944 140.528 275.99 138.699 278.17C137.758 279.292 123.623 280.454 123.623 280.454L122.522 276.305C114.293 270.204 104.049 270.65 95.3652 259.516C90.583 253.384 89.418 245.663 89.418 245.663Z" fill="#FFBF95"/>
<path d="M126.486 282.847L132.174 286.54L132.956 285.608L128.342 281.301C130.963 279.232 137.033 280.958 137.033 280.958C139.022 279.674 142.897 275.508 143.297 273.276C142.024 271.689 137.784 274.954 137.784 274.954C137.947 275.66 136.601 278.107 135.535 278.527C130.903 279.525 126.287 278.21 122.522 276.298C122.522 276.303 119.374 281.072 126.486 282.847Z" fill="#B460A3"/>
<path d="M89.3348 246.783C88.8278 246.919 88.3718 247.201 88.0237 247.594C87.6755 247.986 87.4506 248.473 87.3769 248.993C86.9706 251.866 84.8789 257.686 87.7032 263.78C94.6522 278.74 98.7541 288.598 99.4834 292.46C97.6691 295.859 104.905 305.144 105.015 305.753L110.223 304.121C110.223 304.121 107.24 299.677 106.17 297.944C103.606 293.798 103.187 288.711 102.771 284.765C100.993 267.931 104.05 257.301 91.8687 247.425C91.1426 246.832 90.2306 246.548 89.3348 246.783Z" fill="#FFBF95"/>
<path d="M96.894 299.575L97.408 306.338L98.6235 306.394L99.2468 300.117C102.481 300.947 104.794 306.819 104.794 306.819C107.021 307.622 112.683 308.179 114.701 307.146C115.191 305.171 110.024 303.778 110.024 303.778C109.557 304.331 106.798 304.757 105.819 304.157C102.215 301.081 100.258 296.612 99.4948 292.458C99.4899 292.46 93.9947 292.848 96.894 299.575Z" fill="#B460A3"/>
<path d="M64.9097 193.939L58.6671 193.004L59.1566 198.8C59.1566 198.8 60.3526 201.427 61.7395 201.603L66.848 200.213L64.9097 193.939Z" fill="#FFBF95"/>
<path d="M52.8897 185.558C54.5017 192.288 60.0948 196.72 65.3812 195.454C70.6676 194.188 73.6469 187.705 72.0365 180.973C70.4261 174.241 64.8314 169.81 59.545 171.076C54.2586 172.342 51.2777 178.826 52.8897 185.558Z" fill="#FFBF95"/>
<path d="M55.4268 185.603C56.7125 186.601 57.091 188.264 56.2719 189.316C55.4529 190.369 53.7495 190.409 52.4654 189.409C51.1813 188.409 50.8028 186.748 51.6202 185.696C52.4377 184.643 54.1492 184.603 55.4268 185.603Z" fill="#FFBF95"/>
<path d="M52.7592 184.964C59.0702 184.119 67.9004 177.689 68.6232 174.39C67.4028 170.427 60.8992 168.434 57.2281 170.27C53.557 172.105 50.0866 179.98 52.7592 184.964Z" fill="#444444"/>
<path d="M111.795 232.678C111.596 232.613 111.411 232.509 111.251 232.372C111.092 232.236 110.96 232.069 110.865 231.882C110.77 231.695 110.713 231.49 110.697 231.281C110.68 231.072 110.706 230.861 110.771 230.661L120.511 200.821C120.643 200.417 120.93 200.083 121.308 199.891C121.687 199.698 122.126 199.664 122.53 199.796C122.729 199.861 122.914 199.965 123.074 200.102C123.234 200.238 123.365 200.405 123.46 200.592C123.555 200.78 123.612 200.984 123.629 201.193C123.645 201.403 123.62 201.613 123.554 201.813L113.814 231.653C113.682 232.057 113.395 232.391 113.017 232.584C112.638 232.776 112.199 232.81 111.795 232.678Z" fill="#CD3D27"/>
<path d="M116.969 221.99L118.955 215.909C118.955 215.909 120.675 219.407 118.955 222.728C117.235 226.048 115.597 226.195 115.597 226.195L116.969 221.99Z" fill="#FFBF95"/>
<path d="M114.135 220.361C113.633 219.181 112.451 216.228 113.633 216.241C114.814 216.254 115.006 217.69 115.006 217.69L114.135 220.361Z" fill="#FFBF95"/>
<path d="M16.5539 202.592C19.233 199.889 17.4758 197.118 17.4758 197.118C18.9442 196.802 26.7009 208.551 30.0391 216.015C35.8721 210.142 46.1512 202.197 48.9298 201.736C48.9298 201.736 52.6825 200.727 54.0269 205.26C55.2294 209.306 50.5386 212.173 50.5386 212.173C50.5386 212.173 30.4699 226.337 27.5101 225.077C22.8976 223.119 18.7158 206.262 16.5539 202.592Z" fill="#FFBF95"/>
<path d="M12.3656 202.258C13.9972 202.358 16.0269 201.548 16.6567 203.017L19.8873 201.441L20.0831 199.492C17.3094 195.043 10.5399 193.782 9.86927 193.723C8.12835 193.57 7.32071 193.397 7.18529 193.624C7.04986 193.85 6.62238 195.405 9.14321 195.709C12.3134 196.089 10.2086 198.624 3.7785 196.211C2.16811 195.608 -0.861775 196.391 0.23303 197.569C1.44694 198.864 4.91573 201.803 12.3656 202.258Z" fill="#FFBF95"/>
<path d="M187.401 111.674C187.4 113.124 187.155 114.564 186.675 115.932C184.302 122.743 176.384 127.745 166.978 127.745C157.572 127.745 149.655 122.743 147.283 115.932C146.803 114.564 146.557 113.124 146.557 111.674H187.401Z" fill="#F37423"/>
<path d="M187.401 111.674C187.4 113.124 187.155 114.564 186.675 115.932H147.286C146.806 114.564 146.56 113.124 146.56 111.674H187.401Z" fill="white"/>
<path d="M209.745 42.7794C209.745 19.1799 190.631 0.0444849 167.04 0.0118528C143.772 -0.0207792 124.634 18.7296 124.218 41.9946C124.025 51.7502 127.187 61.2765 133.176 68.9797C140.474 78.3794 144.525 89.8919 144.525 101.793V102.003H189.432V101.793C189.432 89.8821 193.511 78.3614 200.811 68.9405C206.616 61.4569 209.76 52.2509 209.745 42.7794Z" fill="#FFC42C"/>
<path d="M173.449 97.1631C173.326 97.1629 173.204 97.1425 173.088 97.1027C172.814 97.0069 172.59 96.8063 172.464 96.5451C172.338 96.2838 172.321 95.9833 172.416 95.7093C172.467 95.5657 177.508 81.0347 181.173 66.2393C187.668 40.0146 184.323 35.7447 182.587 35.1361C177.477 33.3266 173.406 36.0041 170.892 38.5624C170.122 39.3515 169.413 40.1981 168.771 41.0947C169.907 43.0707 170.877 45.1374 171.672 47.2736C173.937 53.3236 174.539 58.9738 173.282 62.3904C172.313 65.0254 170.253 66.3601 167.48 66.1528C164.87 65.9554 162.953 64.4413 161.948 61.7736C160.796 58.7144 160.944 54.2144 162.356 49.4306C163.233 46.4531 164.526 43.6143 166.196 40.9984C164.687 38.6114 162.933 36.5588 161.047 35.1769C158.233 33.1259 155.589 33.0362 153.191 34.9126C148.237 38.7843 148.048 50.4275 152.643 68.5856C156.183 82.5847 161.382 95.5266 161.434 95.6555C161.536 95.9232 161.529 96.2204 161.414 96.4831C161.3 96.7457 161.086 96.9529 160.82 97.0598C160.555 97.1668 160.257 97.165 159.993 97.0549C159.728 96.9449 159.517 96.7353 159.406 96.4713C159.353 96.3408 154.106 83.2781 150.526 69.1387C145.632 49.7928 146.074 37.6961 151.843 33.1863C155.013 30.7079 158.74 30.7862 162.334 33.4082C164.129 34.7217 165.924 36.6894 167.531 39.0976C168.088 38.3735 168.688 37.6827 169.326 37.0287C173.509 32.7621 178.477 31.354 183.314 33.0672C186.324 34.1326 187.556 38.1855 187.089 45.456C186.742 50.8174 185.457 57.9883 183.287 66.7696C179.598 81.6612 174.527 96.2755 174.477 96.4207C174.404 96.6358 174.265 96.8228 174.081 96.9558C173.897 97.0889 173.676 97.1613 173.449 97.1631ZM167.446 43.1456C166.174 45.3186 165.171 47.6384 164.46 50.0538C163.199 54.3286 163.028 58.4223 164 61.0084C164.703 62.8733 165.898 63.8441 167.652 63.9763C169.461 64.1133 170.6 63.371 171.241 61.6398C172.687 57.7011 170.928 49.6573 167.446 43.1456Z" fill="white"/>
<path d="M185.643 96.6186H148.312C143.862 96.6186 140.254 100.226 140.254 104.677V105.015C140.254 109.465 143.862 113.073 148.312 113.073H185.643C190.094 113.073 193.702 109.465 193.702 105.015V104.677C193.702 100.226 190.094 96.6186 185.643 96.6186Z" fill="#F37423"/>
<path d="M239.635 44.539H225.652C224.696 44.539 223.78 44.1595 223.104 43.484C222.428 42.8084 222.048 41.8921 222.048 40.9365C222.048 39.9806 222.427 39.0638 223.103 38.3879C223.779 37.712 224.696 37.3322 225.652 37.3322H239.635C240.108 37.3322 240.577 37.4255 241.014 37.6066C241.451 37.7878 241.848 38.0533 242.183 38.388C242.517 38.7227 242.783 39.12 242.963 39.5573C243.144 39.9946 243.237 40.4632 243.237 40.9365C243.237 41.8919 242.858 42.8082 242.182 43.4839C241.506 44.1595 240.59 44.539 239.635 44.539Z" fill="#FFC42C"/>
<path d="M108.307 44.539H94.3242C93.3686 44.539 92.4521 44.1595 91.7762 43.484C91.1004 42.8084 90.7204 41.8921 90.72 40.9365C90.72 39.9806 91.0997 39.0638 91.7757 38.3879C92.4516 37.712 93.3683 37.3322 94.3242 37.3322H108.307C109.263 37.3322 110.18 37.712 110.856 38.3879C111.532 39.0638 111.911 39.9806 111.911 40.9365C111.911 41.8921 111.531 42.8084 110.855 43.484C110.179 44.1595 109.263 44.539 108.307 44.539Z" fill="#FFC42C"/>
<path d="M117.193 14.9492L106.065 6.48283C105.688 6.19612 105.37 5.83772 105.131 5.42815C104.892 5.01859 104.737 4.5659 104.673 4.09605C104.609 3.62619 104.639 3.14838 104.76 2.69001C104.882 2.23164 105.092 1.80171 105.38 1.42486C105.667 1.04721 106.025 0.729839 106.435 0.490935C106.844 0.252032 107.297 0.0962891 107.767 0.0326308C108.237 -0.0310275 108.714 -0.00135043 109.173 0.119962C109.631 0.241274 110.061 0.451837 110.438 0.739586L121.566 9.2076C121.943 9.49419 122.261 9.8525 122.5 10.262C122.739 10.6715 122.895 11.1242 122.959 11.594C123.022 12.0639 122.993 12.5417 122.872 13.0002C122.751 13.4586 122.54 13.8886 122.252 14.2656C121.966 14.6433 121.607 14.9608 121.197 15.1997C120.787 15.4385 120.335 15.5942 119.865 15.6577C119.395 15.7212 118.917 15.6913 118.458 15.5698C118 15.4482 117.57 15.2373 117.193 14.9492Z" fill="#FFC42C"/>
<path d="M216.05 14.9486L227.177 6.48217C227.555 6.19545 227.872 5.83708 228.111 5.42757C228.35 5.01806 228.506 4.56545 228.57 4.09564C228.634 3.62584 228.604 3.14806 228.483 2.68966C228.362 2.23126 228.152 1.80124 227.864 1.4242C227.578 1.04673 227.219 0.729526 226.81 0.490746C226.4 0.251965 225.947 0.0962958 225.477 0.0326456C225.008 -0.0310046 224.53 -0.00138582 224.072 0.119807C223.613 0.241 223.183 0.451387 222.806 0.738929L211.679 9.20694C211.301 9.49351 210.984 9.85186 210.744 10.2614C210.505 10.671 210.35 11.1237 210.286 11.5936C210.222 12.0636 210.252 12.5414 210.373 12.9998C210.495 13.4582 210.706 13.8881 210.994 14.2649C211.28 14.6424 211.639 14.9596 212.048 15.1983C212.458 15.437 212.91 15.5926 213.38 15.6561C213.85 15.7196 214.327 15.6898 214.785 15.5684C215.244 15.447 215.673 15.2363 216.05 14.9486Z" fill="#FFC42C"/>
<path d="M117.193 71.3847L106.065 79.8511C105.688 80.1378 105.37 80.4962 105.131 80.9057C104.892 81.3153 104.737 81.768 104.673 82.2378C104.609 82.7077 104.639 83.1855 104.76 83.6439C104.882 84.1022 105.092 84.5322 105.38 84.909C105.667 85.2867 106.025 85.6041 106.435 85.843C106.844 86.0819 107.297 86.2376 107.767 86.3013C108.237 86.3649 108.714 86.3352 109.173 86.2139C109.631 86.0926 110.061 85.8821 110.438 85.5943L121.566 77.1263C122.326 76.5476 122.826 75.6906 122.955 74.7436C123.083 73.7966 122.831 72.8373 122.252 72.0765C121.966 71.6981 121.608 71.38 121.199 71.1403C120.789 70.9006 120.336 70.7442 119.866 70.6799C119.396 70.6156 118.918 70.6448 118.459 70.7658C118.001 70.8867 117.57 71.097 117.193 71.3847Z" fill="#FFC42C"/>
<path d="M216.05 71.3838L227.177 79.8501C227.555 80.1369 227.872 80.4952 228.111 80.9047C228.35 81.3143 228.506 81.7669 228.57 82.2367C228.634 82.7065 228.604 83.1842 228.483 83.6426C228.362 84.1011 228.152 84.5311 227.864 84.9081C227.577 85.2856 227.219 85.6028 226.809 85.8416C226.4 86.0803 225.947 86.236 225.477 86.2997C225.008 86.3633 224.53 86.3337 224.072 86.2125C223.613 86.0913 223.183 85.8809 222.806 85.5934L211.679 77.1254C211.302 76.8389 210.986 76.481 210.747 76.0721C210.509 75.6632 210.354 75.2114 210.29 74.7424C210.226 74.2735 210.256 73.7966 210.376 73.339C210.497 72.8814 210.707 72.4521 210.994 72.0756C211.28 71.6975 211.638 71.3796 212.047 71.1401C212.456 70.9006 212.908 70.7442 213.378 70.68C213.848 70.6157 214.326 70.6448 214.784 70.7655C215.243 70.8863 215.673 71.0964 216.05 71.3838Z" fill="#FFC42C"/>
<path d="M183.738 230.675V233.013H184.375C184.523 233.013 184.666 233.072 184.771 233.177C184.875 233.282 184.934 233.425 184.934 233.573V233.666C184.934 233.814 184.875 233.957 184.771 234.062C184.666 234.167 184.523 234.226 184.375 234.226H157.246C157.073 234.226 156.907 234.157 156.785 234.034C156.662 233.912 156.594 233.746 156.594 233.573V230.205C156.594 230.032 156.662 229.866 156.785 229.744C156.907 229.622 157.073 229.553 157.246 229.553H184.375C184.523 229.553 184.665 229.612 184.77 229.717C184.875 229.822 184.934 229.964 184.934 230.112C184.934 230.261 184.875 230.403 184.77 230.508C184.665 230.612 184.523 230.672 184.375 230.672L183.738 230.675Z" fill="#E62552"/>
<path d="M160.092 230.678H183.818V233.016H160.092C160.029 233.016 159.968 233.004 159.91 232.98C159.852 232.956 159.8 232.921 159.756 232.877C159.712 232.833 159.677 232.78 159.653 232.723C159.629 232.665 159.617 232.603 159.617 232.541V231.154C159.617 231.092 159.629 231.03 159.652 230.972C159.676 230.914 159.711 230.862 159.755 230.817C159.799 230.773 159.852 230.738 159.91 230.714C159.967 230.69 160.029 230.678 160.092 230.678Z" fill="white"/>
<path d="M154.197 225.629V228.217H153.56C153.404 228.226 153.258 228.295 153.153 228.411C153.048 228.527 152.994 228.679 153.001 228.835V228.94C152.993 229.096 153.048 229.249 153.153 229.365C153.258 229.481 153.404 229.55 153.56 229.558H180.689C180.871 229.549 181.042 229.468 181.164 229.333C181.286 229.198 181.35 229.021 181.342 228.839V225.112C181.35 224.93 181.286 224.752 181.164 224.618C181.042 224.483 180.871 224.402 180.689 224.393H153.56C153.404 224.401 153.258 224.47 153.153 224.586C153.048 224.702 152.993 224.855 153.001 225.011C152.994 225.167 153.048 225.32 153.153 225.435C153.258 225.551 153.404 225.621 153.56 225.629H154.197Z" fill="#3F964F"/>
<path d="M177.819 228.217H154.115V225.631H177.819C177.952 225.631 178.078 225.683 178.172 225.777C178.266 225.871 178.318 225.998 178.318 226.13V227.718C178.318 227.85 178.266 227.977 178.172 228.071C178.078 228.164 177.952 228.217 177.819 228.217Z" fill="white"/>
<path d="M180.939 217.799H156.2C155.654 217.799 155.212 218.242 155.212 218.788V221.005C155.212 221.551 155.654 221.994 156.2 221.994H180.939C181.485 221.994 181.927 221.551 181.927 221.005V218.788C181.927 218.242 181.485 217.799 180.939 217.799Z" fill="#E62552"/>
<path d="M182.926 221.994H157.705C157.292 221.994 156.957 222.329 156.957 222.741V223.644C156.957 224.056 157.292 224.391 157.705 224.391H182.926C183.339 224.391 183.673 224.056 183.673 223.644V222.741C183.673 222.329 183.339 221.994 182.926 221.994Z" fill="#768FDB"/>
</svg>
